<svg id="Capa_1" enable-background="new 0 0 512 512" height="512" viewBox="0 0 512 512" width="512" xmlns="http://www.w3.org/2000/svg"><g><g><path d="m472 376c16.57 0 30 13.43 30 30s-13.43 30-30 30h-432c-16.57 0-30-13.43-30-30s13.43-30 30-30h5l20.82-124.93c2.41-14.47 14.93-25.07 29.59-25.07h321.18c14.66 0 27.18 10.6 29.59 25.07l20.82 124.93z" fill="#ffa2c3"/><g fill="#ffda8f"><path d="m406 211c0 5.14-.52 10.15-1.5 15h-297c-.98-4.85-1.5-9.86-1.5-15 0-36.34 25.85-66.61 60.15-73.5-.01-.51-.15-.99-.15-1.5 0-33.14 26.86-60 60-60 24.25 0 45.02 14.46 54.48 35.17 6.18-3.2 13.09-5.17 20.52-5.17 20.03 0 36.81 13.18 42.64 31.27 35.37 6.04 62.36 36.64 62.36 73.73z"/><path d="m256 331c16.57 0 30 11.86 30 28.43s-13.43 16.57-30 16.57-30 0-30-16.57 13.43-28.43 30-28.43z"/></g></g><g><circle cx="316" cy="316" r="10"/><circle cx="286" cy="166" r="10"/><circle cx="286" cy="286" r="10"/><circle cx="226" cy="136" r="10"/><circle cx="226" cy="286" r="10"/><circle cx="196" cy="316" r="10"/><path d="m256 321c-22.43 0-40 16.88-40 38.43 0 14.905 8.277 21.192 15.222 23.842 7.15 2.728 15.713 2.728 24.778 2.728s17.628 0 24.778-2.729c6.944-2.649 15.222-8.937 15.222-23.842 0-21.549-17.57-38.429-40-38.429zm17.649 43.586c-3.707 1.414-10.479 1.414-17.649 1.414s-13.942 0-17.649-1.414c-1.365-.521-2.351-.897-2.351-5.156 0-10.679 8.411-18.43 20-18.43s20 7.751 20 18.43c0 4.258-.986 4.634-2.351 5.156z"/><circle cx="256.001" cy="436" r="10"/><path d="m475.497 366.151-19.453-116.724c-3.227-19.368-19.819-33.427-39.454-33.427h-.751c.097-1.666.161-3.333.161-5 0-39.498-27.001-73.284-64.992-82.421-8.775-19.71-28.187-32.579-50.008-32.579-5.429 0-10.796.842-16.042 2.511-12.732-20.013-34.959-32.511-58.958-32.511-36.468 0-66.513 28.033-69.717 63.682-35.375 10.734-60.283 43.724-60.283 81.318 0 1.666.064 3.334.162 5h-.752c-19.635 0-36.229 14.059-39.454 33.427l-19.453 116.724c-20.425 1.778-36.503 18.971-36.503 39.849 0 22.056 17.944 40 40 40h171.001c5.523 0 10-4.478 10-10s-4.477-10-10-10h-171.001c-11.028 0-20-8.972-20-20s8.972-20 20-20h5c4.889 0 9.061-3.534 9.864-8.356l20.82-124.931c1.613-9.684 9.909-16.713 19.726-16.713h321.18c9.816 0 18.112 7.029 19.726 16.714l20.82 124.93c.804 4.822 4.976 8.356 9.864 8.356h5c11.028 0 20 8.972 20 20s-8.972 20-20 20h-170.999c-5.522 0-10 4.478-10 10s4.478 10 10 10h170.999c22.056 0 40-17.944 40-40 0-20.878-16.078-38.071-36.503-39.849zm-359.497-155.151c0-30.842 21.919-57.63 52.119-63.696 4.875-.979 8.763-5.487 7.883-11.752.242-27.364 22.578-49.552 49.998-49.552 19.432 0 37.246 11.511 45.385 29.325 1.138 2.49 3.246 4.405 5.834 5.298 2.589.893 5.429.686 7.86-.573 5.189-2.688 10.546-4.05 15.921-4.05 15.12 0 28.431 9.78 33.122 24.337 1.143 3.546 4.162 6.163 7.834 6.79 31.315 5.348 54.044 32.21 54.044 63.873 0 1.667-.084 3.335-.211 5h-279.578c-.127-1.665-.211-3.333-.211-5z"/></g></g></svg>