<svg id="Capa_1" enable-background="new 0 0 512 512" height="512" viewBox="0 0 512 512" width="512" xmlns="http://www.w3.org/2000/svg"><g><g><g><path d="m236 49.299h40v492h-40z" fill="#b8ecbc" transform="matrix(0 1 -1 0 551.299 39.299)"/><path d="m23.5 315.299 102.876 97.486h259.248l102.876-97.486z" fill="#89df8f"/><g fill="#b5b3ee"><path d="m256 125.299 28.867 50c6.415 11.111 5.613 23.611 0 33.333s-16.037 16.667-28.867 16.667c-12.83 0-23.254-6.945-28.867-16.667s-6.415-22.222 0-33.333z"/><path d="m168.149 99.215 17.295 29.955c3.843 6.657 3.363 14.145 0 19.97s-9.608 9.985-17.295 9.985c-7.686 0-13.932-4.16-17.295-9.985s-3.843-13.313 0-19.97z"/><path d="m343.851 99.215 17.295 29.955c3.843 6.657 3.363 14.145 0 19.97s-9.608 9.985-17.295 9.985c-7.687 0-13.932-4.16-17.295-9.985s-3.843-13.313 0-19.97z"/></g></g></g><g><path d="m502 265.299h-492c-5.523 0-10 4.477-10 10v40c0 5.523 4.477 10 10 10h9.515l99.983 94.744c1.857 1.76 4.319 2.741 6.878 2.741h84.624c5.523 0 10-4.477 10-10s-4.477-10-10-10h-80.639l-81.77-77.485h414.818l-81.77 77.485h-80.639c-5.522 0-10 4.477-10 10s4.478 10 10 10h84.624c2.559 0 5.021-.981 6.878-2.741l99.983-94.744h9.515c5.522 0 10-4.477 10-10v-40c0-5.523-4.478-10-10-10zm-482 20h472v20h-472z"/><circle cx="256" cy="412.785" r="10"/><path d="m256 235.299c15.667 0 29.696-8.1 37.527-21.667 7.833-13.567 7.833-29.767 0-43.333l-28.867-50c-1.786-3.094-5.088-5-8.66-5s-6.874 1.906-8.66 5l-28.867 50c-7.833 13.567-7.833 29.766 0 43.333 7.831 13.568 21.86 21.667 37.527 21.667zm-20.207-55 20.207-35 20.207 35c4.218 7.305 4.218 16.028 0 23.334-4.217 7.305-11.772 11.666-20.207 11.666-8.436 0-15.99-4.361-20.207-11.667-4.218-7.305-4.218-16.027 0-23.333z"/><path d="m168.148 169.126c10.836 0 20.539-5.602 25.955-14.984 5.418-9.383 5.418-20.587 0-29.971l-17.295-29.956c-1.786-3.094-5.088-5-8.66-5-3.573 0-6.874 1.906-8.66 5l-17.294 29.955c-5.418 9.384-5.418 20.588 0 29.97 5.416 9.384 15.12 14.986 25.954 14.986zm-8.633-34.955 8.634-14.955 8.635 14.956c2.598 4.499.865 8.47 0 9.97-.865 1.499-3.439 4.985-8.635 4.985-5.195 0-7.769-3.486-8.634-4.986-.866-1.499-2.598-5.471 0-9.97z"/><path d="m343.852 169.126c10.835 0 20.538-5.602 25.954-14.984 5.418-9.383 5.418-20.587 0-29.971l-17.294-29.956c-1.786-3.094-5.087-5-8.66-5-3.572 0-6.874 1.906-8.66 5l-17.295 29.955c-5.418 9.384-5.418 20.588-.001 29.97 5.416 9.384 15.12 14.986 25.956 14.986zm-8.635-34.955 8.635-14.955 8.634 14.956c2.598 4.499.865 8.47-.001 9.97-.864 1.499-3.438 4.985-8.633 4.985-5.196 0-7.77-3.486-8.635-4.986-.865-1.499-2.598-5.471 0-9.97z"/></g></g></svg>